<svg width="220" height="26" viewBox="0 0 220 26" fill="none" xmlns="http://www.w3.org/2000/svg">
<path d="M3.79688 12.9422V15.7412H8.25091V19.1486H3.79688V25.3551H0V9.53474H9.78427V12.9422H3.79688Z" fill="white"/>
<path d="M33.6608 19.9518L37.0683 25.3551H32.8089L29.4988 20.3169H27.6978V25.3551H23.9009V9.53474H31.4703C35.3645 9.53474 37.1169 12.5041 37.1169 14.938C37.1169 16.7147 36.1677 19.0756 33.6608 19.9518ZM27.6978 16.9095H31.446C31.9327 16.9095 32.3708 16.8364 32.6873 16.6904C32.9063 16.5687 33.101 16.447 33.247 16.2766C33.5878 15.8629 33.7095 15.3031 33.7095 14.938C33.7095 14.5486 33.5878 13.9888 33.1984 13.575C32.8333 13.1369 32.2735 12.9422 31.4703 12.9422H27.6978V16.9095Z" fill="white"/>
<path d="M94.5813 9.53474V25.3551L84.0912 17.6396V25.3551H80.2943V9.53474L90.7844 17.6153V9.53474H94.5813Z" fill="white"/>
<path d="M116.462 13.3316V25.3551H112.665V13.3316H108.552V9.53474H120.575V13.3316H116.462Z" fill="white"/>
<path d="M137.905 9.53474V25.3551H134.108V9.53474H137.905Z" fill="white"/>
<path d="M155.453 21.9476H162.706V25.3551H151.656V9.53474H162.706V12.9422H155.453V15.7412H161.611V19.1486H155.453V21.9476Z" fill="white"/>
<path d="M186.583 19.9518L189.99 25.3551H185.731L182.421 20.3169H180.62V25.3551H176.823V9.53474H184.392C188.286 9.53474 190.039 12.5041 190.039 14.938C190.039 16.7147 189.089 19.0756 186.583 19.9518ZM180.62 16.9095H184.368C184.854 16.9095 185.293 16.8364 185.609 16.6904C185.828 16.5687 186.023 16.447 186.169 16.2766C186.51 15.8629 186.631 15.3031 186.631 14.938C186.631 14.5486 186.51 13.9888 186.12 13.575C185.755 13.1369 185.195 12.9422 184.392 12.9422H180.62V16.9095Z" fill="white"/>
<path d="M214.767 17.3962L220 22.6291L217.298 25.3064L212.065 20.0735L206.833 25.3064L204.155 22.6291L209.388 17.3962L204.155 12.1633L206.857 9.48606L212.065 14.6946L217.298 9.48606L220 12.1633L214.767 17.3962Z" fill="white"/>
<path d="M66.7436 12.4372L63.8776 9.57124L62.7002 10.7486C61.4802 10.0246 60.0595 9.60471 58.5383 9.60471C54.0356 9.60471 50.3847 13.2556 50.3847 17.7583C50.3847 19.2795 50.8015 20.7033 51.5287 21.9202L50.33 23.1189L53.1959 25.9848L54.4007 24.7801C55.6146 25.4981 57.0293 25.9088 58.5413 25.9088C63.044 25.9088 66.6949 22.2579 66.6949 17.7552C66.6949 16.2432 66.2811 14.8285 65.5662 13.6146L66.7496 12.4311L66.7436 12.4372ZM54.0751 19.3738C53.8926 18.8626 53.7922 18.3181 53.7922 17.7583C53.7922 16.4926 54.279 15.3 55.1795 14.3995C56.08 13.4989 57.2727 13.0122 58.5383 13.0122C59.0981 13.0122 59.6396 13.1126 60.1538 13.2951L54.0782 19.3707L54.0751 19.3738ZM61.8971 21.117C60.9965 21.9932 59.8039 22.5044 58.5383 22.5044C57.9907 22.5044 57.4582 22.404 56.9562 22.2245L63.0106 16.1701C63.187 16.6752 63.2844 17.2076 63.2844 17.7583C63.2844 19.0239 62.7976 20.2165 61.8971 21.117Z" fill="white"/>
<path d="M219.751 0.0151596H50.2478V4.0676H219.751V0.0151596Z" fill="white"/>
</svg>
