<svg xmlns="http://www.w3.org/2000/svg" width="26" height="26"><g transform="translate(0 -1026.362)"><circle cx="13" cy="1039.362" r="13" fill="#ef4c45" fill-rule="evenodd"/>
<path style="line-height:normal;text-indent:0;text-align:start;text-decoration-line:none;text-decoration-style:solid;text-decoration-color:#000;text-transform:none;block-progression:tb;isolation:auto;mix-blend-mode:normal" fill="#fff" d="M5.426 2a.5.5 0 0 0-.346.146L2.146 5.08a.5.5 0 0 0 0 .707L4.36 8l-2.213 2.213a.5.5 0 0 0 0 .709l2.934 2.932a.5.5 0 0 0 .707 0L8 11.643l2.213 2.21a.5.5 0 0 0 .707 0l2.935-2.931a.5.5 0 0 0 0-.71L11.641 8l2.214-2.213a.5.5 0 0 0 0-.707L10.92 2.146a.5.5 0 0 0-.707 0L8 4.36 5.787 2.146A.5.5 0 0 0 5.426 2Z" color="#000" font-family="sans-serif" font-weight="400" overflow="visible" transform="translate(4.999 1031.362)"/></g></svg>